{
	"asset":{
		"generator":"Khronos glTF Blender I/O v3.6.28",
		"version":"2.0"
	},
	"scene":0,
	"scenes":[
		{
			"name":"Scene",
			"nodes":[
				0
			]
		}
	],
	"nodes":[
		{
			"mesh":0,
			"name":"Cube"
		}
	],
	"materials":[
		{
			"doubleSided":true,
			"name":"Material",
			"pbrMetallicRoughness":{
				"baseColorFactor":[
					0.8000000715255737,
					0,
					0.012296742759644985,
					1
				],
				"roughnessFactor":0.3818897604942322
			}
		}
	],
	"meshes":[
		{
			"name":"Mesh",
			"primitives":[
				{
					"attributes":{
						"POSITION":0,
						"NORMAL":1,
						"TEXCOORD_0":2
					},
					"indices":3,
					"material":0
				}
			]
		}
	],
	"accessors":[
		{
			"bufferView":0,
			"componentType":5126,
			"count":41548,
			"max":[
				0.3525831997394562,
				0.8524354696273804,
				1.0810171365737915
			],
			"min":[
				-0.3525831997394562,
				-1.0000001192092896,
				-1.0810171365737915
			],
			"type":"VEC3"
		},
		{
			"bufferView":1,
			"componentType":5126,
			"count":41548,
			"type":"VEC3"
		},
		{
			"bufferView":2,
			"componentType":5126,
			"count":41548,
			"type":"VEC2"
		},
		{
			"bufferView":3,
			"componentType":5123,
			"count":245760,
			"type":"SCALAR"
		}
	],
	"bufferViews":[
		{
			"buffer":0,
			"byteLength":498576,
			"byteOffset":0,
			"target":34962
		},
		{
			"buffer":0,
			"byteLength":498576,
			"byteOffset":498576,
			"target":34962
		},
		{
			"buffer":0,
			"byteLength":332384,
			"byteOffset":997152,
			"target":34962
		},
		{
			"buffer":0,
			"byteLength":491520,
			"byteOffset":1329536,
			"target":34963
		}
	],
	"buffers":[
		{
			"byteLength":1821056,
			"uri":"data:application/octet-stream;base64,"
		}
	]
}
